<svg width="256" height="256" viewBox="0 0 256 256" fill="none" xmlns="http://www.w3.org/2000/svg">
  <rect x="16" y="16" width="224" height="224" rx="48" fill="#FFFDF8"/>
  <rect x="16" y="16" width="224" height="224" rx="48" stroke="#D9D1C3" stroke-width="4"/>
  <path d="M164 58C137.49 58 113.556 69.3232 97.0124 87.3902C80.5258 105.395 71 130.154 71 157C71 174.338 75.0734 190.33 83.2155 204.543L102.699 193.085C96.5427 182.525 93 170.399 93 157C93 136.147 100.243 118.518 112.992 104.591C125.684 90.7265 143.695 82 164 82C178.536 82 191.877 86.2856 202.942 93.6046L214 74.7815C199.25 64.1083 182.286 58 164 58Z" fill="#0D5C63"/>
  <path d="M117 96H165C183.225 96 198 110.775 198 129V130C198 148.225 183.225 163 165 163H126L93 196V129C93 110.775 107.775 96 126 96H117Z" fill="#1A7077"/>
  <path d="M126 119H166C171.523 119 176 123.477 176 129C176 134.523 171.523 139 166 139H126C120.477 139 116 134.523 116 129C116 123.477 120.477 119 126 119Z" fill="#FFFDF8"/>
  <path d="M126 146H154C159.523 146 164 150.477 164 156C164 161.523 159.523 166 154 166H126C120.477 166 116 161.523 116 156C116 150.477 120.477 146 126 146Z" fill="#FFFDF8"/>
  <circle cx="189" cy="88" r="11" fill="#B45F06"/>
</svg>
