<svg width="720" height="220" viewBox="0 0 720 220" fill="none" xmlns="http://www.w3.org/2000/svg">
  <rect width="720" height="220" rx="36" fill="#FFFDF8"/>
  <rect x="2" y="2" width="716" height="216" rx="34" stroke="#E3DBCD" stroke-width="4"/>
  <g transform="translate(34 32)">
    <rect x="0" y="0" width="152" height="152" rx="34" fill="#FFFDF8"/>
    <rect x="0" y="0" width="152" height="152" rx="34" stroke="#D9D1C3" stroke-width="3"/>
    <path d="M94.9191 20C75.8197 20 58.5669 28.1095 46.6534 41.0511C34.781 53.9488 27.92 71.6812 27.92 90.9524C27.92 103.403 30.8535 114.882 36.7202 125.077L50.7511 116.856C46.3175 109.281 43.7637 100.579 43.7637 90.9524C43.7637 75.9898 48.9806 63.3378 58.1645 53.2885C67.3073 43.2831 80.2773 37 94.9191 37C105.401 37 115.024 40.0927 123.005 45.3777L130.983 31.7855C120.341 24.0782 108.098 20 94.9191 20Z" fill="#0D5C63"/>
    <path d="M61.8115 49.7539H96.8712C110.012 49.7539 120.666 60.4075 120.666 73.5493V74.2623C120.666 87.4041 110.012 98.0577 96.8712 98.0577H68.3877L44.5922 121.853V73.5493C44.5922 60.4075 55.2457 49.7539 68.3875 49.7539H61.8115Z" fill="#1A7077"/>
    <path d="M68.3872 66.8926H97.2272C101.208 66.8926 104.436 70.1206 104.436 74.1019C104.436 78.0832 101.208 81.3112 97.2272 81.3112H68.3872C64.4059 81.3112 61.1779 78.0832 61.1779 74.1019C61.1779 70.1206 64.4059 66.8926 68.3872 66.8926Z" fill="#FFFDF8"/>
    <path d="M68.3872 86.7949H88.5827C92.564 86.7949 95.792 90.0229 95.792 94.0042C95.792 97.9855 92.564 101.213 88.5827 101.213H68.3872C64.4059 101.213 61.1779 97.9855 61.1779 94.0042C61.1779 90.0229 64.4059 86.7949 68.3872 86.7949Z" fill="#FFFDF8"/>
    <circle cx="112.995" cy="40.8106" r="8.28521" fill="#B45F06"/>
  </g>
  <text x="212" y="82" fill="#0D5C63" font-size="22" font-family="Georgia, 'Iowan Old Style', serif" letter-spacing="7.6">PERSONAL WRITING MODEL</text>
  <text x="212" y="150" fill="#202124" font-size="82" font-weight="700" font-family="Georgia, 'Iowan Old Style', serif">ChatGPMe</text>
  <text x="214" y="186" fill="#6A6F73" font-size="24" font-family="Georgia, 'Iowan Old Style', serif">Your documents, your voice, your model.</text>
</svg>
